<svg xmlns:inkscape="http://www.inkscape.org/namespaces/inkscape" xmlns:sodipodi="http://sodipodi.sourceforge.net/DTD/sodipodi-0.dtd" xmlns="http://www.w3.org/2000/svg" xmlns:svg="http://www.w3.org/2000/svg" width="750" height="900" viewBox="14.544 6.588 7.3546817 10.729124" version="1.1" id="svg5" sodipodi:docname="pause.svg" inkscape:version="1.3 (0e150ed6c4, 2023-07-21)">
  <defs id="defs5" fill="#ffffff"/>
  <sodipodi:namedview id="namedview5" pagecolor="#ffffff" bordercolor="#ffffff" borderopacity="0.25" inkscape:showpageshadow="2" inkscape:pageopacity="0.0" inkscape:pagecheckerboard="0" inkscape:deskcolor="#ffffff" inkscape:zoom="0.4825" inkscape:cx="238.34197" inkscape:cy="310.88083" inkscape:window-width="1620" inkscape:window-height="1010" inkscape:window-x="-6" inkscape:window-y="-6" inkscape:window-maximized="1" inkscape:current-layer="svg5" fill="#ffffff"/>
  <style type="text/css" id="style1">
	.st0{opacity:0.2;fill:none;stroke:#ffffff;stroke-width:5.000000e-02;stroke-miterlimit:10;}
</style>
  <g id="grid_system"/>
  <path d="m 14.867752,8.1223406 v 4.6000084 h 2 V 8.1223407 c 0,-0.6 -0.4,-1 -1,-1 -0.6,0 -1,0.4 -1,0.9999999 z" fill="#ffffff" id="path1"/>
  <path d="M 40.919684,19.596062 Z" fill="#ffffff" id="path2"/>
  <path d="m 21.669345,15.91181 v -4.6 h -2 v 4.6 c 0,0.6 0.4,1 1,1 0.6,0 1,-0.4 1,-1 z" fill="#ffffff" id="path3"/>
  <path d="m 19.669345,8.1470476 v 4.6000084 h 2 V 8.1470476 c 0,-0.5999999 -0.4,-0.9999999 -1,-0.9999999 -0.6,0 -1,0.4 -1,0.9999999 z" fill="#ffffff" id="path3-3"/>
  <path d="m 16.867752,15.91181 v -4.6 h -2 v 4.6 c 0,0.6 0.4,1 1,1 0.6,0 1,-0.4 1,-1 z" fill="#ffffff" id="path5"/>
</svg>