<?xml version="1.0" encoding="UTF-8" standalone="no"?>
<svg width="800px" height="800px" viewBox="0 0 24 24" version="1.1" xml:space="preserve" id="svg2" sodipodi:docname="speaker.svg" inkscape:version="1.3 (0e150ed6c4, 2023-07-21)" xmlns:inkscape="http://www.inkscape.org/namespaces/inkscape" xmlns:sodipodi="http://sodipodi.sourceforge.net/DTD/sodipodi-0.dtd" xmlns="http://www.w3.org/2000/svg" xmlns:svg="http://www.w3.org/2000/svg"><defs id="defs2" /><sodipodi:namedview id="namedview2" pagecolor="#ffffff" bordercolor="#000000" borderopacity="0.25" inkscape:showpageshadow="2" inkscape:pageopacity="0.0" inkscape:pagecheckerboard="0" inkscape:deskcolor="#d1d1d1" inkscape:zoom="0.965" inkscape:cx="400" inkscape:cy="400" inkscape:window-width="1620" inkscape:window-height="1010" inkscape:window-x="-6" inkscape:window-y="-6" inkscape:window-maximized="1" inkscape:current-layer="svg2" />&#10;&#10;<style type="text/css" id="style1">&#10;	.st0{display:none;}&#10;	.st1{display:inline;}&#10;	.st2{opacity:0.2;fill:none;stroke:#ffffff;stroke-width:5.000000e-02;stroke-miterlimit:10;}&#10;</style>&#10;&#10;<g class="st0" id="grid_system" />&#10;&#10;<g id="_icons" transform="translate(-0.96)">&#10;&#10;<path d="m 3,13.4 c 0,1.7 1.3,3 3,3 h 1.2 l 2.3,1.8 c 0.9,0.7 1.9,1.2 2.9,1.6 0.4,0.1 0.8,0.2 1.2,0.2 0.7,0 1.4,-0.2 2,-0.6 0.9,-0.6 1.4,-1.6 1.4,-2.7 V 7.3 C 17,6.2 16.5,5.3 15.6,4.6 14.7,4 13.5,3.8 12.5,4.2 11.4,4.6 10.4,5.1 9.6,5.8 L 7.2,7.6 H 6 c -1.7,0 -3,1.3 -3,3 z M 8.5,9.1 10.7,7.4 c 0.7,-0.6 1.5,-1 2.4,-1.3 0.4,-0.2 0.9,-0.1 1.3,0.2 0.3,0.2 0.5,0.6 0.5,1 v 9.4 c 0,0.4 -0.2,0.8 -0.6,1 C 13.9,18 13.4,18 13,17.9 12.1,17.6 11.3,17.1 10.6,16.6 L 8.4,14.9 V 9.1 Z M 5,10.6 c 0,-0.6 0.4,-1 1,-1 h 0.5 v 4.9 H 6 c -0.6,0 -1,-0.4 -1,-1 z" fill="#ffffff" id="path1" />&#10;&#10;<path d="m 19.7,9.3 c -0.4,-0.4 -1,-0.4 -1.4,0 -0.4,0.4 -0.4,1 0,1.4 0.3,0.3 0.5,0.8 0.5,1.3 0,0.5 -0.2,1 -0.5,1.3 -0.4,0.4 -0.4,1 0,1.4 0.2,0.2 0.4,0.3 0.7,0.3 0.3,0 0.5,-0.1 0.7,-0.3 0.7,-0.7 1,-1.6 1,-2.7 0,-1.1 -0.3,-2 -1,-2.7 z" fill="#ffffff" id="path2" />&#10;&#10;</g>&#10;&#10;</svg>
